<svg xmlns="http://www.w3.org/2000/svg" viewBox="0 0 1909 347" fill="#e8b830"><path d="M458 7.3A30 30 0 0 1 469 25c.8 8.3-1.1 15.9-3.1 23.8l-3.7 14.7-2.8 11.1-12.7 50a5155 5155 0 0 0-16 63.5l-7 28.5-3.7 14.6-1.5 5.8-.7 3-9.3 37-5.1 20.4-.8 3.2-1.6 6q-2.1 8.5-3.5 17A30 30 0 0 1 386 341c-8.2 5-15.5 5.7-25 5a33 33 0 0 1-18.3-12.8 31 31 0 0 1-3.5-25.2l.6-2.1.6-2.4 3.4-14 15-59 17.9-71.7.5-2.2 2.6-10.6.5-2.1 16-64.3 1-3.6 4.8-19.2.6-2 2.6-10q3-11.2 5-22.5c1.8-7.8 5.8-12 12.3-16.3 11-6.7 24.6-5.7 35.4 1.3M623.5 6.2a33 33 0 0 1 13.3 21c.7 6.5-1.4 12.7-3 18.9l-7.2 27.6-3.9 14.8a5226 5226 0 0 0-24.3 97.1l-.6 2.4-18.9 76.2-.6 2.5-9.7 37.9q-2.7 10.7-5 21.5c-1.8 8-8.7 13.8-15.5 18-6.8 3.2-15.5 3-22.7 1.3a34 34 0 0 1-18.7-17.5c-2.6-7.3-2-14 0-21.4q0-1 .4-2a1116 1116 0 0 1 7.7-30.3q4.6-17.4 9-35l1.5-6.3 16.2-65.4A14975 14975 0 0 1 573 40.9l.5-2q2-8.5 3.6-17c1.2-4.5 3.5-7.6 6.8-10.9l1.7-1.7c10.5-9.9 25.5-10.1 37.8-3M147.5 36.8H274l108 .2-.4 4.3-.3 2.4q-.7 5-2.1 10l-.6 2.3-1.2 4.7L374 74l-.7 2.9-9 36c0 .6 0 .6-.8 3.5l-15.8 65.1-19.5 80.4Q322.8 284 317 306c-3.7 1.2-7.2 1.1-11 1.1h-37.4l-98.4.1c-31.9.1-61.6 0-91.2-13.2l-3.1-1.4A124 124 0 0 1 43 269l-2.7-2.5a128 128 0 0 1-38.7-94.6v-2.2c0-11.9 1-23.2 4.4-34.7l.6-2.2a138 138 0 0 1 35.4-58c14.2-15.2 33-25 52.6-31.7l3.3-1.1c16.5-5.4 32.5-5.3 49.6-5.2M112 112l-2.6 2A73 73 0 0 0 84 160c-1.8 25 3.5 45 20 64.4a77 77 0 0 0 107 4.6l2.4-2.1c9.9-9.1 17-21 20.6-33.9l.5-1.9a80 80 0 0 0-6.7-56.2A81 81 0 0 0 166 95l-3.1-.2A75 75 0 0 0 112 112M494 37h49c-2.2 12.4-2.2 12.4-3.7 18.3l-.5 2-1.6 6.6-13.3 54.2-19.2 78.6-.6 2.2-7.2 30.2A6380 6380 0 0 1 478 306a148 148 0 0 1-18.3 1.2h-23.8c-5.7 0-5.7 0-7.9-2.2q.6-4 1.7-7.8l.6-2.4 3.5-13.4 2.9-11.2 6.1-25 9.1-38 .8-3.3q5.4-22.2 11-44.5l13.6-55.7 5.5-22.5.6-2.2 5.5-22.8.8-3.5 1.5-6.5.7-2.8.6-2.5c.5-1.9.5-1.9 1.5-3.9M655 38l41.3-.1h9.6c2.1.1 2.1.1 3.1 1.1l.1 11v47.1L709 129l3.7-3.2 2-1.8 2.3-2 2.7-2.2c3-3.5 3-6.3 3-10.6V93.9l.1-13.9V65.8q.3-13.8.2-27.8l42-.1h9.9c2.1.1 2.1.1 3.1 1.1l.6 9.4q.5 10.5.8 21l.5 14.2c2 33.3 2 33.3-7.6 44.6A120 120 0 0 1 753 145c3.3 4.1 6.5 7.5 10.7 10.7 7.8 6.3 14.3 12.2 16 22.4.7 7.6.5 15.2.2 22.9l-.1 11.5q0 10.9-.4 21.8L779 259q-.4 25.5-1 50.9h-55l-1-134c-13.4 13.4-13.4 13.4-13.6 21.2l.1 3.4V223l.3 26.7.2 60.2H587c2.3-12.4 2.3-12.4 3.6-17.6l.8-3.5 1-3.7 3.6-14.5 2.2-8.8 12.8-50.2 10.9-43.2q1.6-6.8 3.3-13.4l.6-2.2 8-32Q644 79.6 655 38M791 38h121c1 1 1 1 1.1 2.9v155.8L913 310h-54l.2-26.5v-43.1l.1-29.5c.3-23.4.3-23.4-5.2-29.7a38 38 0 0 0-9.1-6.2v135h-54zm54 42a246 246 0 0 0-.8 20.5c-.7 14.2-.7 14.2 3 19.9 3.6 3.7 7.1 6.3 11.8 8.6l.1-38.2V82c-.1-2-.1-2-1.1-3l-6-.1h-3.3c-2.7.1-2.7.1-3.7 1.1M927 38h54v91l8-7 3-2.4c2.7-3.4 2.7-6.3 2.7-10.4V93.9l.1-13.9.1-16.7.1-25.3h54c1 19.8 1 19.8 1.2 28.3l.6 17.4c2 34.4 2 34.4-7.2 45.3a106 106 0 0 1-18.6 16c3.2 4 6.3 7.4 10.5 10.5 7.5 6 13.5 11.6 15 21.5q.9 11.5.3 23.1l-.1 11.6q0 11-.4 22l-.4 25-.9 51.3h-54l-1-134c-13.4 13.4-13.4 13.4-13.6 21.2l.1 3.4v3.6l.1 11.7v27.3q.3 12 .2 24 0 21.4.2 42.8h-54zM1063 38h53c1 1 1 1 1.1 2.9v114L1117 310h-54zM1136 37.9h45.9c2.1.1 2.1.1 3.1 1.1l.2 11 .3 30.3.2 16.1.3 31.6c5.3-4 10.8-8.1 12-15q.6-7 .3-14.1v-5.2l-.1-13.6-.1-13.8V50.7l-.1-2.3V39c1.7-1.7 3.7-1.1 6-1.1h45.9c2.1.1 2.1.1 3.1 1.1l.6 9.4q.6 10.5.7 21.1l.6 14.1c1.8 33.4 1.8 33.4-7.4 44.4a110 110 0 0 1-18.5 16 31 31 0 0 0 6.5 9.4c2 2 3.8 3.6 6.2 5.2 5.6 4.3 10.3 8.6 12.1 15.6 1.2 8.8 1 17.6.7 26.4l-.1 11.6-.3 21.8-.3 24.9-.8 51.1h-55l-1-134c-12.3 12.3-12.3 12.3-12.4 20.2v27l.2 19.4v22q0 22.8.2 45.4l-42 .1h-9.9c-2.1-.1-2.1-.1-3.1-1.1l-.1-4.3V40.9c.2-3.9 2.8-3 6-3M1266 38h122c1 1 1 1 1.1 2.9v114L1389 310l-42 .1h-9.9c-2.1-.1-2.1-.1-3.1-1.1l-.1-4.7V199.1l.1-3.4c0-5.8-.7-9-4.9-13.3l-4.1-3.4-3-3-1 134h-55zm55 41v39h2l1 3a42 42 0 0 0 6 5.5c2 1.5 2 1.5 4 2.5V79zM1402 38h54v91l8-7 3-2.4c2.7-3.4 2.7-6.3 2.7-10.4V93.9l.1-13.9.1-16.7.1-25.3h54c1 19.8 1 19.8 1.1 28.4l.6 17.4c1.9 34.5 1.9 34.5-7 44.9q-7.1 7.5-15.7 13.4l-2 1.9c.1 3 1 4 3.1 6l2.7 2c10.2 8.4 18.2 15.6 19.6 29.3q.3 9.6-.2 19.2l-.1 11.6-.5 21.8q-.4 12.4-.5 25-.3 25.5-1.1 51.1h-54V176l-8 7-3 2.2c-3.2 4.5-2.7 9.1-2.7 14.6v23.6l-.2 43.5-.1 43.1h-54zM1538 38h54v272h-54zM1606 38h53c1.8 1.8 1.1 4.4 1.1 6.8v52.3l-.1 31.9 2.2-2.3c2.8-2.7 2.8-2.7 5-4 2.6-1.7 4-3.1 5.8-5.7 1.2-6 1-11.9 1-18V38l41.3-.1h9.6c2.1.1 2.1.1 3.1 1.1l.2 9.8.2 24.6.2 31.1v9.7c0 4-.4 5.6-3 8.7l-2.6 2.1-2.3 2.3L1704 144c1.4 3 2.9 5 5.2 7.4l2 1.9 2 2 9.5 9.2c4.2 4 5.8 7 6.1 12.7v22.6l-.1 11.7-.3 47-.4 51.5h-54V176c-12 7.2-12 7.2-13.7 13.7q-.5 4.8-.3 9.5V310h-54zM1742 38l27.2-.1h2.4l5.4.1c1.7 1.7 1.1 3.8 1.1 6v51.8l.2 116c0 14.9 2.1 28.7 12.7 40.2a50 50 0 0 0 35.7 13.3c11.9-1 23-6.4 31.2-15.1a45 45 0 0 0 10.4-29.2v-10.2l.1-36.8.4-120.3v-9.6c0-5 0-5 1.2-6.1h38l.4 188.3c0 23.4-4 45.5-20.7 63.2-20.5 18.8-48.1 21.2-74.6 20.9l-22.6-.1-16.8-.1-32.7-.2V193.3l-.1-140.6v-8.5c.1-2.2.5-4 1.1-6.2"/><path d="M1789 81c8.8 4.4 12.8 13 16 21.9 4.6 15.5.3 29.7-6.9 43.5q-3 5.2-7.1 9.6h-2zM1856 81v74l-2 1a67 67 0 0 1-15-49c1.4-6.9 8.6-26 17-26M1798 190h49c4.7 15.3 4.7 15.3 6.3 21.5l.5 2a34 34 0 0 1 1.2 10.5l-5.6 2.4-3.2 1.3a62 62 0 0 1-49-.3l-7.2-3.4c.7-7.4 2.6-14.3 4.6-21.5z"/></svg>